<svg xmlns="http://www.w3.org/2000/svg" viewBox="0 0 356.31 94.28"><defs><style>.cls-1{fill:#2d2d2d;}.cls-2{fill:none;}.cls-3{fill:#ff2300;}.cls-4{fill:#0f4b9f;}.cls-5{fill:#22c1f3;}</style></defs><g id="Layer_2" data-name="Layer 2"><g id="Layer_1-2" data-name="Layer 1"><path class="cls-1" d="M141.43,30.34a16.76,16.76,0,0,0-6-3.82,19.49,19.49,0,0,0-7-1.34q-8.19,0-13,5.36a18.89,18.89,0,0,0-4.74,13.28,17.88,17.88,0,0,0,4.47,12.32q4.47,5,13.28,5a17.73,17.73,0,0,0,11.76-4.27V47.12H126.78V40.24h20.57V60a24.54,24.54,0,0,1-18.92,8.39,29.89,29.89,0,0,1-11.39-2,20.15,20.15,0,0,1-8-5.5,24.53,24.53,0,0,1-4.47-7.77,27.71,27.71,0,0,1-1.51-9.26q0-10.93,6.74-18.33t18.58-7.4a24.4,24.4,0,0,1,17.82,7.29Z"></path><path class="cls-1" d="M161.25,53.11a9,9,0,0,0,3.47,6.19,12,12,0,0,0,7.61,2.34,16.17,16.17,0,0,0,5.53-1,10.45,10.45,0,0,0,4.3-2.64l4.61,4.47a16.89,16.89,0,0,1-6.5,4.26,22.43,22.43,0,0,1-8.08,1.52q-8.33,0-13.32-4.89t-5-13.07a17.24,17.24,0,0,1,5-12.73q4.95-5,12.87-5,8.52,0,13.27,5.23t3.79,15.27Zm20.71-6a8,8,0,0,0-3-6,12.39,12.39,0,0,0-13.89,0,9.71,9.71,0,0,0-3.68,6Z"></path><path class="cls-1" d="M221.73,67.42V49.26a10.2,10.2,0,0,0-2.41-7.12,8.65,8.65,0,0,0-6.74-2.65,8.78,8.78,0,0,0-6.82,3,10.35,10.35,0,0,0-2.68,7.22V67.42H196v-34h6.47l.41,5A14.78,14.78,0,0,1,214.29,33a13.81,13.81,0,0,1,10.5,4.34q4.1,4.34,4.09,11.9V67.42Z"></path><path class="cls-1" d="M243.26,53.11a9,9,0,0,0,3.48,6.19,12,12,0,0,0,7.6,2.34,16.27,16.27,0,0,0,5.54-1,10.45,10.45,0,0,0,4.3-2.64l4.61,4.47a17,17,0,0,1-6.5,4.26,22.49,22.49,0,0,1-8.09,1.52q-8.32,0-13.31-4.89t-5-13.07a17.24,17.24,0,0,1,4.95-12.73q5-5,12.87-5,8.54,0,13.28,5.23t3.78,15.27Zm20.71-6a8,8,0,0,0-3-6,12.4,12.4,0,0,0-13.9,0,9.76,9.76,0,0,0-3.68,6Z"></path><path class="cls-1" d="M299.68,41.83a12.68,12.68,0,0,0-8.94-3.17,10.68,10.68,0,0,0-5.27,1,3.34,3.34,0,0,0-2,3.06q.08,3.64,7.36,4.34a43.36,43.36,0,0,1,5,.72,22.44,22.44,0,0,1,4.47,1.51,7.88,7.88,0,0,1,3.65,3.2,10,10,0,0,1,1.27,5.23,9.42,9.42,0,0,1-4,7.77q-3.92,3-10.45,3-9.92,0-15.48-6.26l3.71-5q4.41,4.89,11.9,5a10.78,10.78,0,0,0,5-1.1,3.67,3.67,0,0,0,2.2-3.3,3.29,3.29,0,0,0-1.89-3.23,17.23,17.23,0,0,0-6-1.45q-13.76-1.3-13.82-10.18a8.45,8.45,0,0,1,4.29-7.74,18.71,18.71,0,0,1,9.81-2.58q8,0,13.07,4.54Z"></path><path class="cls-1" d="M313.72,19.67a4.69,4.69,0,0,1,4.4,0,4,4,0,0,1,2.2,3.86,4,4,0,0,1-2.2,3.88,4.53,4.53,0,0,1-4.4,0,4,4,0,0,1-2.2-3.88A4,4,0,0,1,313.72,19.67Zm-1.38,13.69V67.42h7.09V33.36Z"></path><path class="cls-1" d="M350.73,41.83a12.68,12.68,0,0,0-8.94-3.17,10.62,10.62,0,0,0-5.26,1,3.33,3.33,0,0,0-2,3.06c0,2.43,2.5,3.88,7.36,4.34a43.69,43.69,0,0,1,5,.72,22.87,22.87,0,0,1,4.47,1.51,7.85,7.85,0,0,1,3.64,3.2,10,10,0,0,1,1.28,5.23,9.48,9.48,0,0,1-4,7.77q-3.93,3-10.46,3-9.92,0-15.48-6.26l3.71-5q4.41,4.89,11.91,5a10.74,10.74,0,0,0,5-1.1,3.67,3.67,0,0,0,2.2-3.3,3.26,3.26,0,0,0-1.89-3.23,17.17,17.17,0,0,0-5.95-1.45q-13.77-1.3-13.83-10.18a8.44,8.44,0,0,1,4.3-7.74,18.65,18.65,0,0,1,9.8-2.58q8,0,13.07,4.54Z"></path><path class="cls-1" d="M112.24,84.78a5.16,5.16,0,0,1-3.8,1.51,6.14,6.14,0,0,1-2.37-.44,4.4,4.4,0,0,1-1.67-1.17,5.32,5.32,0,0,1-1-1.64,5.65,5.65,0,0,1-.33-1.94,5.56,5.56,0,0,1,.34-1.95,5.44,5.44,0,0,1,1-1.69,4.49,4.49,0,0,1,1.68-1.21,6.11,6.11,0,0,1,2.35-.44,5.05,5.05,0,0,1,3.7,1.53l-1.09,1a3.53,3.53,0,0,0-2.61-1,3.47,3.47,0,0,0-2.77,1.11,4.09,4.09,0,0,0,0,5.24,3.46,3.46,0,0,0,2.77,1.08,3.89,3.89,0,0,0,1.44-.29,3.55,3.55,0,0,0,1.25-.81Z"></path><path class="cls-1" d="M121.42,79.88a3.68,3.68,0,0,1,1,2.65,3.64,3.64,0,0,1-1,2.65,3.56,3.56,0,0,1-2.68,1,3.51,3.51,0,0,1-2.65-1,3.64,3.64,0,0,1-1-2.65,3.68,3.68,0,0,1,1-2.65,3.51,3.51,0,0,1,2.65-1.06A3.59,3.59,0,0,1,121.42,79.88Zm-4.25,1a2.44,2.44,0,0,0-.6,1.66,2.36,2.36,0,0,0,.6,1.65,2,2,0,0,0,1.58.66,2.05,2.05,0,0,0,1.6-.66,2.36,2.36,0,0,0,.6-1.65,2.4,2.4,0,0,0-.62-1.65,2.16,2.16,0,0,0-3.16,0Z"></path><path class="cls-1" d="M131.52,86.08V82.27a2.12,2.12,0,0,0-.51-1.49,1.81,1.81,0,0,0-1.41-.56,1.85,1.85,0,0,0-1.43.62,2.17,2.17,0,0,0-.56,1.52v3.72h-1.49V79h1.36l.08,1a3.13,3.13,0,0,1,2.4-1.14,2.92,2.92,0,0,1,2.2.91,3.51,3.51,0,0,1,.86,2.5v3.82Z"></path><path class="cls-1" d="M139.19,76.92V79h2.08v1.29h-2.1v3.39c0,.78.34,1.17,1,1.17a2,2,0,0,0,.91-.25l.43,1.27a3.57,3.57,0,0,1-1.43.32,2.31,2.31,0,0,1-1.8-.61,2.65,2.65,0,0,1-.62-1.9V80.27h-1.38V79h1.38v-1.9Z"></path><path class="cls-1" d="M145.15,76.07a1,1,0,0,1,.93,0,.83.83,0,0,1,.46.8.86.86,0,0,1-.46.82,1,1,0,0,1-.93,0,.84.84,0,0,1-.46-.82A.81.81,0,0,1,145.15,76.07Zm-.29,2.87v7.14h1.49V78.94Z"></path><path class="cls-1" d="M155.87,86.08V82.27a2.12,2.12,0,0,0-.51-1.49,1.82,1.82,0,0,0-1.41-.56,1.85,1.85,0,0,0-1.43.62,2.17,2.17,0,0,0-.57,1.52v3.72h-1.48V79h1.35l.09,1a3.1,3.1,0,0,1,2.4-1.14,2.93,2.93,0,0,1,2.2.91,3.51,3.51,0,0,1,.86,2.5v3.82Z"></path><path class="cls-1" d="M162.74,79v3.81a2.16,2.16,0,0,0,.51,1.49,2,2,0,0,0,2.85-.06,2.23,2.23,0,0,0,.55-1.53V79h1.49V86.1H166.8L166.71,85a3.14,3.14,0,0,1-2.45,1.16,2.81,2.81,0,0,1-2.18-.91,3.59,3.59,0,0,1-.83-2.5V79Z"></path><path class="cls-1" d="M172.55,76.07a.94.94,0,0,1,.92,0,.81.81,0,0,1,.46.8.84.84,0,0,1-.46.82.94.94,0,0,1-.92,0,.85.85,0,0,1-.47-.82A.82.82,0,0,1,172.55,76.07Zm-.29,2.87v7.14h1.49V78.94Z"></path><path class="cls-1" d="M183.26,86.08V82.27a2.12,2.12,0,0,0-.51-1.49,1.79,1.79,0,0,0-1.41-.56,1.86,1.86,0,0,0-1.43.62,2.21,2.21,0,0,0-.56,1.52v3.72h-1.49V79h1.36l.08,1a3.13,3.13,0,0,1,2.4-1.14,2.9,2.9,0,0,1,2.2.91,3.51,3.51,0,0,1,.86,2.5v3.82Z"></path><path class="cls-1" d="M194.88,78.29l1.09.84-.85,1a3.37,3.37,0,0,1,.86,2.21,3,3,0,0,1-.47,1.69,2.87,2.87,0,0,1-1.42,1.08A2.37,2.37,0,0,1,196,87.43a2.43,2.43,0,0,1-1.14,2.13,4.64,4.64,0,0,1-2.67.77,4.18,4.18,0,0,1-2.78-.85,2.75,2.75,0,0,1-1-2.31h1.49a1.36,1.36,0,0,0,.64,1.25,3,3,0,0,0,1.63.46,3.21,3.21,0,0,0,1.58-.37,1.17,1.17,0,0,0,.68-1.08,1.28,1.28,0,0,0-.61-1.14,2.9,2.9,0,0,0-1.62-.41,4.07,4.07,0,0,1-2.81-.95,3.34,3.34,0,0,1-1-2.6,3.23,3.23,0,0,1,1.14-2.63,4.14,4.14,0,0,1,2.72-1,3.38,3.38,0,0,1,1.92.49Zm-4.36,2.42a2,2,0,0,0-.69,1.62,2,2,0,0,0,.67,1.6,2.48,2.48,0,0,0,1.69.58,2.32,2.32,0,0,0,1.65-.61,2,2,0,0,0,.66-1.57,2,2,0,0,0-.68-1.6,2.34,2.34,0,0,0-1.63-.59A2.52,2.52,0,0,0,190.52,80.71Z"></path><path class="cls-1" d="M209.5,76a5.65,5.65,0,0,1,2.23.42,4.2,4.2,0,0,1,1.59,1.13,5.21,5.21,0,0,1,.91,1.58,5.73,5.73,0,0,1,.06,3.72,5.15,5.15,0,0,1-.9,1.64,4.17,4.17,0,0,1-1.61,1.17,5.52,5.52,0,0,1-2.28.44h-3.83V76Zm-2.22,8.54h2.22a3.18,3.18,0,0,0,2.61-1.06,3.68,3.68,0,0,0,.85-2.53,4,4,0,0,0-.37-1.64A2.88,2.88,0,0,0,211.44,78a3.53,3.53,0,0,0-1.94-.51h-2.22Z"></path><path class="cls-1" d="M219.38,83.08a1.89,1.89,0,0,0,.73,1.3,2.49,2.49,0,0,0,1.59.49,3.49,3.49,0,0,0,1.17-.21,2.26,2.26,0,0,0,.9-.55l1,.93a3.45,3.45,0,0,1-1.36.9,4.75,4.75,0,0,1-1.7.32,3.8,3.8,0,0,1-2.79-1,3.65,3.65,0,0,1-1-2.74,3.62,3.62,0,0,1,1-2.67,3.69,3.69,0,0,1,2.7-1,3.59,3.59,0,0,1,2.79,1.1,4,4,0,0,1,.79,3.2Zm4.34-1.25a1.63,1.63,0,0,0-.62-1.27,2.59,2.59,0,0,0-2.92,0,2,2,0,0,0-.77,1.27Z"></path><path class="cls-1" d="M234.16,86.08V82.27a2.12,2.12,0,0,0-.5-1.49,2,2,0,0,0-2.84.06,2.17,2.17,0,0,0-.57,1.52v3.72h-1.48V79h1.35l.09,1a3.1,3.1,0,0,1,2.4-1.14,2.93,2.93,0,0,1,2.2.91,3.51,3.51,0,0,1,.86,2.5v3.82Z"></path><path class="cls-1" d="M241.83,76.92V79h2.08v1.29h-2.09v3.39q0,1.17,1,1.17a2,2,0,0,0,.91-.25l.44,1.27a3.57,3.57,0,0,1-1.43.32,2.31,2.31,0,0,1-1.8-.61,2.61,2.61,0,0,1-.63-1.9V80.27H239V79h1.37v-1.9Z"></path><path class="cls-1" d="M253.23,79h1.44v7.11h-1.41l-.08-1.15a2.27,2.27,0,0,1-1,1,3.19,3.19,0,0,1-1.42.34,3.59,3.59,0,0,1-2.63-1,3.69,3.69,0,0,1-1-2.77,3.58,3.58,0,0,1,1-2.72,3.7,3.7,0,0,1,2.64-1,2.94,2.94,0,0,1,1.43.35,2.35,2.35,0,0,1,1,.93Zm-4,1.84a2.29,2.29,0,0,0-.67,1.71,2.33,2.33,0,0,0,.67,1.72,2.26,2.26,0,0,0,1.64.65,2.49,2.49,0,0,0,1.14-.26,1.91,1.91,0,0,0,.75-.68,3.23,3.23,0,0,0,.37-.92,2.11,2.11,0,0,0,0-1,3.18,3.18,0,0,0-.37-.93,1.82,1.82,0,0,0-.75-.67,2.37,2.37,0,0,0-1.14-.26A2.25,2.25,0,0,0,249.23,80.81Z"></path><path class="cls-1" d="M260.33,76V86.08h-1.48V76Z"></path><path class="cls-1" d="M277.92,86.08h-7.46V76h7.42v1.57h-5.81v2.73h5.58v1.5h-5.58V84.5h5.85Z"></path><path class="cls-1" d="M288.85,76V86.08h-1.4L287.37,85a2.71,2.71,0,0,1-2.47,1.27,3.71,3.71,0,1,1,0-7.42,3.29,3.29,0,0,1,1.43.34,2.24,2.24,0,0,1,1.07.93V76Zm-5.46,4.84a2.23,2.23,0,0,0-.64,1.69,2.28,2.28,0,0,0,.64,1.69,2.35,2.35,0,0,0,3.22,0,2.27,2.27,0,0,0,.65-1.67,2.3,2.3,0,0,0-3.87-1.69Z"></path><path class="cls-1" d="M294.34,79v3.81a2.16,2.16,0,0,0,.51,1.49,1.87,1.87,0,0,0,1.43.56,1.84,1.84,0,0,0,1.42-.62,2.23,2.23,0,0,0,.55-1.53V79h1.49V86.1H298.4L298.31,85a3.14,3.14,0,0,1-2.45,1.16,2.81,2.81,0,0,1-2.18-.91,3.59,3.59,0,0,1-.83-2.5V79Z"></path><path class="cls-1" d="M309.88,85.16a3.71,3.71,0,0,1-2.7,1.11,3.86,3.86,0,0,1-2.69-1,4.11,4.11,0,0,1,0-5.51,3.82,3.82,0,0,1,2.69-1,3.54,3.54,0,0,1,2.57,1.06l-.95,1a2.38,2.38,0,0,0-3.24,0,2.28,2.28,0,0,0-.65,1.68,2.21,2.21,0,0,0,.65,1.69,2.46,2.46,0,0,0,3.31-.06Z"></path><path class="cls-1" d="M318.85,79h1.44v7.11h-1.41l-.08-1.15a2.27,2.27,0,0,1-1,1,3.19,3.19,0,0,1-1.42.34,3.59,3.59,0,0,1-2.63-1,3.69,3.69,0,0,1-1-2.77,3.58,3.58,0,0,1,1-2.72,3.7,3.7,0,0,1,2.64-1,2.94,2.94,0,0,1,1.43.35,2.35,2.35,0,0,1,1,.93Zm-4,1.84a2.29,2.29,0,0,0-.67,1.71,2.33,2.33,0,0,0,.67,1.72,2.26,2.26,0,0,0,1.64.65,2.49,2.49,0,0,0,1.14-.26,1.91,1.91,0,0,0,.75-.68,3.23,3.23,0,0,0,.37-.92,2.11,2.11,0,0,0,0-1,3.18,3.18,0,0,0-.37-.93,1.82,1.82,0,0,0-.75-.67,2.37,2.37,0,0,0-1.14-.26A2.25,2.25,0,0,0,314.85,80.81Z"></path><path class="cls-1" d="M326.7,76.92V79h2.08v1.29h-2.09v3.39q0,1.17,1,1.17a2,2,0,0,0,.91-.25l.44,1.27a3.57,3.57,0,0,1-1.43.32,2.31,2.31,0,0,1-1.8-.61,2.61,2.61,0,0,1-.63-1.9V80.27h-1.37V79h1.37v-1.9Z"></path><path class="cls-1" d="M332.67,76.07a.94.94,0,0,1,.92,0,.81.81,0,0,1,.46.8.84.84,0,0,1-.46.82.94.94,0,0,1-.92,0,.84.84,0,0,1-.46-.82A.81.81,0,0,1,332.67,76.07Zm-.29,2.87v7.14h1.49V78.94Z"></path><path class="cls-1" d="M343.87,79.88a3.68,3.68,0,0,1,1,2.65,3.64,3.64,0,0,1-1,2.65,3.56,3.56,0,0,1-2.68,1,3.51,3.51,0,0,1-2.65-1,3.64,3.64,0,0,1-1-2.65,3.68,3.68,0,0,1,1-2.65,3.5,3.5,0,0,1,2.65-1.06A3.59,3.59,0,0,1,343.87,79.88Zm-4.25,1a2.44,2.44,0,0,0-.6,1.66,2.4,2.4,0,0,0,.59,1.65,2.26,2.26,0,0,0,3.19,0,2.36,2.36,0,0,0,.6-1.65,2.4,2.4,0,0,0-.62-1.65,2.16,2.16,0,0,0-3.16,0Z"></path><path class="cls-1" d="M354,86.08V82.27a2.12,2.12,0,0,0-.51-1.49,1.81,1.81,0,0,0-1.41-.56,1.85,1.85,0,0,0-1.43.62,2.17,2.17,0,0,0-.57,1.52v3.72h-1.48V79h1.35l.09,1a3.11,3.11,0,0,1,2.4-1.14,2.92,2.92,0,0,1,2.2.91,3.51,3.51,0,0,1,.86,2.5v3.82Z"></path><polygon class="cls-2" points="40.73 68.47 28.01 50.53 40.73 68.47 40.73 68.47"></polygon><polygon class="cls-2" points="46.6 76.74 46.59 76.74 47.93 78.63 46.6 76.74"></polygon><polygon class="cls-3" points="27.56 49.9 27.56 49.9 28.01 50.53 27.56 49.9"></polygon><polygon class="cls-3" points="47.93 78.63 48.28 79.11 48.28 79.11 47.93 78.63"></polygon><path class="cls-4" d="M93.17,25C93.42,23.84,96.7,7.29,77.6,1.4A19,19,0,0,0,72.14.58h0c-3,0-8.56.48-12.21,3.64C54.46,9,50.54,11,46.82,11h0a9.55,9.55,0,0,1-6-2.2C37.19,5.94,29.71,0,21.2,0A18.44,18.44,0,0,0,15,1.08C4.15,5-1.71,15.21.44,26.49c.43,2.26,1.32,6.2,2.64,11.73C7.54,56.92,13.52,82,14.2,84.6l.49,1.47a12,12,0,0,0,10.78,8.2h1.21C34,94,37,89.83,37.15,89.63l3.44-4.7a4.62,4.62,0,0,0,0-5.58,4.54,4.54,0,0,0-7.34.26l-2.58,3.84a3.83,3.83,0,0,1-2.78,1.71A3.68,3.68,0,0,1,24,82.39L9.34,24.3c0-.1-2.6-10.64,9.05-14.31a8.54,8.54,0,0,1,3.19-.55,14,14,0,0,1,8.18,2.93,82,82,0,0,0,8.49,5.48l.06,0a20.28,20.28,0,0,0,9.18,2.18h.69a17.54,17.54,0,0,0,7.91-2.3,44.13,44.13,0,0,0,6.62-4.43A14.53,14.53,0,0,1,72,9.78a11.67,11.67,0,0,1,8.52,3.67c5,5.18,3.8,10,3.47,11.06l-6.63,26.7,8.6.67Z"></path><path class="cls-5" d="M65.67,85.39a4.28,4.28,0,0,1-3.74-1.83L32.83,42.43a4.53,4.53,0,0,0-3.15-1.93,4.31,4.31,0,0,0-3.15.91,4.52,4.52,0,0,0-.73,6l1.76,2.49.45.63L40.73,68.47h0l5.87,8.27h0l1.33,1.89.35.48,7.49,10.57a12,12,0,0,0,9.63,4.6H66a14.58,14.58,0,0,0,5.91-1.45,8.68,8.68,0,0,0,4.48-5.56l9.53-35.38a4.26,4.26,0,0,0-2.65-5.1h0a4.25,4.25,0,0,0-5.59,3l-8,32.18A4.5,4.5,0,0,1,65.67,85.39Z"></path><path class="cls-5" d="M64.51,80.73,67,70.9,41.52,34.51A3.82,3.82,0,0,0,36,33.74h0a3.82,3.82,0,0,0-.73,5.16Z"></path><path class="cls-5" d="M68.34,65.37l2.46-9.83L50.82,27a3.83,3.83,0,0,0-5.55-.78h0a3.83,3.83,0,0,0-.72,5.16Z"></path></g></g></svg>